<svg width="57" height="58" viewBox="0 0 57 58" fill="none" xmlns="http://www.w3.org/2000/svg">
<path d="M18.525 4.91309H38.475C46.075 4.91309 52.25 11.0881 52.25 18.6881V38.6381C52.25 42.2914 50.7987 45.7952 48.2154 48.3785C45.6321 50.9618 42.1284 52.4131 38.475 52.4131H18.525C10.925 52.4131 4.75 46.2381 4.75 38.6381V18.6881C4.75 15.0347 6.20129 11.531 8.7846 8.94769C11.3679 6.36438 14.8716 4.91309 18.525 4.91309ZM18.05 9.66309C15.7824 9.66309 13.6077 10.5639 12.0042 12.1673C10.4008 13.7708 9.5 15.9455 9.5 18.2131V39.1131C9.5 43.8393 13.3237 47.6631 18.05 47.6631H38.95C41.2176 47.6631 43.3923 46.7623 44.9958 45.1588C46.5992 43.5554 47.5 41.3807 47.5 39.1131V18.2131C47.5 13.4868 43.6762 9.66309 38.95 9.66309H18.05ZM40.9687 13.2256C41.7561 13.2256 42.5112 13.5384 43.068 14.0951C43.6247 14.6519 43.9375 15.407 43.9375 16.1943C43.9375 16.9817 43.6247 17.7368 43.068 18.2936C42.5112 18.8503 41.7561 19.1631 40.9687 19.1631C40.1814 19.1631 39.4263 18.8503 38.8695 18.2936C38.3128 17.7368 38 16.9817 38 16.1943C38 15.407 38.3128 14.6519 38.8695 14.0951C39.4263 13.5384 40.1814 13.2256 40.9687 13.2256ZM28.5 16.7881C31.6494 16.7881 34.6699 18.0392 36.8969 20.2662C39.1239 22.4932 40.375 25.5136 40.375 28.6631C40.375 31.8125 39.1239 34.833 36.8969 37.06C34.6699 39.287 31.6494 40.5381 28.5 40.5381C25.3506 40.5381 22.3301 39.287 20.1031 37.06C17.8761 34.833 16.625 31.8125 16.625 28.6631C16.625 25.5136 17.8761 22.4932 20.1031 20.2662C22.3301 18.0392 25.3506 16.7881 28.5 16.7881ZM28.5 21.5381C26.6103 21.5381 24.7981 22.2888 23.4619 23.6249C22.1257 24.9611 21.375 26.7734 21.375 28.6631C21.375 30.5528 22.1257 32.365 23.4619 33.7012C24.7981 35.0374 26.6103 35.7881 28.5 35.7881C30.3897 35.7881 32.2019 35.0374 33.5381 33.7012C34.8743 32.365 35.625 30.5528 35.625 28.6631C35.625 26.7734 34.8743 24.9611 33.5381 23.6249C32.2019 22.2888 30.3897 21.5381 28.5 21.5381Z" fill="white"/>
</svg>
