<svg width="55" height="57" viewBox="0 0 55 57" fill="none" xmlns="http://www.w3.org/2000/svg">
<path d="M27.5 7.16325C23.2455 7.16325 19.1652 8.88408 16.1568 11.9472C13.1484 15.0103 11.4583 19.1647 11.4583 23.4966C11.4583 30.1746 15.5421 36.6169 20.0246 41.6079C22.3178 44.1491 24.8186 46.4877 27.5 48.5986C30.1814 46.4894 32.6821 44.1523 34.9754 41.6126C39.4579 36.6169 43.5417 30.1769 43.5417 23.4966C43.5417 19.1647 41.8516 15.0103 38.8432 11.9472C35.8348 8.88408 31.7545 7.16325 27.5 7.16325ZM27.5 54.3293L26.2006 53.4193L26.1938 53.4146L26.18 53.4029L26.1342 53.3703L25.9623 53.2466C25.0134 52.5443 24.0856 51.8128 23.1802 51.0532C20.8596 49.1123 18.6749 47.0087 16.6421 44.7579C11.9579 39.5406 6.875 31.9829 6.875 23.4966C6.875 17.927 9.04798 12.5856 12.9159 8.64734C16.7839 4.70908 22.0299 2.49658 27.5 2.49658C32.9701 2.49658 38.2161 4.70908 42.0841 8.64734C45.952 12.5856 48.125 17.927 48.125 23.4966C48.125 31.9829 43.0421 39.5429 38.3579 44.7579C35.7039 47.6972 32.7921 50.3838 29.6588 52.7846C29.3977 52.9832 29.1341 53.1784 28.8681 53.3703L28.82 53.4029L28.8062 53.4146L28.8017 53.4169L27.5 54.3293ZM27.5 18.8299C26.2844 18.8299 25.1186 19.3216 24.2591 20.1968C23.3996 21.0719 22.9167 22.2589 22.9167 23.4966C22.9167 24.7343 23.3996 25.9212 24.2591 26.7964C25.1186 27.6716 26.2844 28.1632 27.5 28.1632C28.7156 28.1632 29.8814 27.6716 30.7409 26.7964C31.6004 25.9212 32.0833 24.7343 32.0833 23.4966C32.0833 22.2589 31.6004 21.0719 30.7409 20.1968C29.8814 19.3216 28.7156 18.8299 27.5 18.8299ZM18.3333 23.4966C18.3333 21.0212 19.2991 18.6473 21.0182 16.8969C22.7373 15.1466 25.0688 14.1632 27.5 14.1632C29.9312 14.1632 32.2627 15.1466 33.9818 16.8969C35.7009 18.6473 36.6667 21.0212 36.6667 23.4966C36.6667 25.9719 35.7009 28.3459 33.9818 30.0962C32.2627 31.8466 29.9312 32.8299 27.5 32.8299C25.0688 32.8299 22.7373 31.8466 21.0182 30.0962C19.2991 28.3459 18.3333 25.9719 18.3333 23.4966Z" fill="white"/>
</svg>
