<svg width="256" height="256" viewBox="0 0 256 256" fill="none" xmlns="http://www.w3.org/2000/svg">
<g clip-path="url(#clip0_4044_110)">
<path d="M232 112C232 105.635 229.471 99.5304 224.971 95.0295C220.47 90.5286 214.365 88.0001 208 88.0001H136V79.0001C142.867 77.2165 148.948 73.2058 153.291 67.596C157.634 61.9863 159.993 55.0945 160 48.0001C160 20.0001 133.56 2.09007 132.44 1.34007C131.125 0.462958 129.58 -0.00512695 128 -0.00512695C126.42 -0.00512695 124.875 0.462958 123.56 1.34007C122.44 2.09007 96 20.0001 96 48.0001C96.0067 55.0945 98.3664 61.9863 102.709 67.596C107.052 73.2058 113.133 77.2165 120 79.0001V88.0001H48C41.6348 88.0001 35.5303 90.5286 31.0294 95.0295C26.5286 99.5304 24 105.635 24 112V135.33C24.0082 144.057 26.8119 152.552 32 159.57V200C32 206.365 34.5286 212.47 39.0294 216.971C43.5303 221.472 49.6348 224 56 224H200C206.365 224 212.47 221.472 216.971 216.971C221.471 212.47 224 206.365 224 200V159.57C229.188 152.552 231.992 144.057 232 135.33V112ZM112 48.0001C112 34.4301 122 23.5401 128 18.2101C134 23.5401 144 34.4301 144 48.0001C144 52.2435 142.314 56.3132 139.314 59.3138C136.313 62.3144 132.243 64.0001 128 64.0001C123.757 64.0001 119.687 62.3144 116.686 59.3138C113.686 56.3132 112 52.2435 112 48.0001ZM40 112C40 109.878 40.8429 107.844 42.3431 106.343C43.8434 104.843 45.8783 104 48 104H208C210.122 104 212.157 104.843 213.657 106.343C215.157 107.844 216 109.878 216 112V135.33C216 148.58 205.54 159.64 192.68 159.99C189.472 160.081 186.279 159.528 183.289 158.363C180.299 157.198 177.573 155.446 175.272 153.209C172.971 150.972 171.142 148.297 169.893 145.341C168.644 142.385 168 139.209 168 136C168 133.878 167.157 131.844 165.657 130.343C164.157 128.843 162.122 128 160 128C157.878 128 155.843 128.843 154.343 130.343C152.843 131.844 152 133.878 152 136C152 142.365 149.471 148.47 144.971 152.971C140.47 157.472 134.365 160 128 160C121.635 160 115.53 157.472 111.029 152.971C106.529 148.47 104 142.365 104 136C104 133.878 103.157 131.844 101.657 130.343C100.157 128.843 98.1217 128 96 128C93.8783 128 91.8434 128.843 90.3431 130.343C88.8429 131.844 88 133.878 88 136C88.0013 139.21 87.3587 142.387 86.1103 145.344C84.8619 148.301 83.033 150.978 80.7319 153.216C78.4307 155.453 75.7041 157.207 72.7134 158.372C69.7226 159.537 66.5285 160.091 63.32 160C50.46 159.64 40 148.58 40 135.33V112ZM200 208H56C53.8783 208 51.8434 207.157 50.3431 205.657C48.8429 204.157 48 202.122 48 200V172.56C52.6829 174.682 57.741 175.851 62.88 176C68.2265 176.166 73.5515 175.25 78.535 173.307C83.5185 171.363 88.0577 168.432 91.88 164.69C93.3724 163.235 94.7498 161.667 96 160C99.7259 164.968 104.557 169 110.111 171.777C115.666 174.554 121.79 176 128 176C134.21 176 140.334 174.554 145.889 171.777C151.443 169 156.274 164.968 160 160C161.254 161.661 162.635 163.222 164.13 164.67C171.572 171.96 181.583 176.029 192 176H193.14C198.272 175.849 203.323 174.679 208 172.56V200C208 202.122 207.157 204.157 205.657 205.657C204.157 207.157 202.122 208 200 208Z" fill="white"/>
</g>
<defs>
<clipPath id="clip0_4044_110">
<rect width="256" height="256" fill="white"/>
</clipPath>
</defs>
</svg>
