<svg width="55" height="56" viewBox="0 0 55 56" fill="none" xmlns="http://www.w3.org/2000/svg">
<path d="M47.7748 34.7073L37.6535 30.1719L37.6256 30.159C37.1002 29.9343 36.527 29.8441 35.9579 29.8966C35.3889 29.9492 34.8419 30.1427 34.3664 30.4598C34.3104 30.4968 34.2566 30.537 34.2053 30.5801L28.976 35.0381C25.6631 33.429 22.2428 30.0344 20.6336 26.7645L25.0981 21.4557C25.141 21.402 25.1819 21.3483 25.2205 21.2903C25.5308 20.8161 25.7191 20.2726 25.7686 19.7081C25.818 19.1436 25.7272 18.5756 25.5041 18.0547V18.029L20.9559 7.89048C20.661 7.21 20.1539 6.64313 19.5104 6.27451C18.8668 5.90589 18.1213 5.75528 17.3852 5.84517C14.474 6.22825 11.8018 7.65795 9.86765 9.86725C7.93353 12.0765 6.86976 14.9144 6.87502 17.8506C6.87502 34.9092 20.7539 48.7881 37.8125 48.7881C40.7488 48.7934 43.5866 47.7296 45.7959 45.7955C48.0052 43.8614 49.4349 41.1892 49.818 38.278C49.908 37.5421 49.7577 36.7968 49.3895 36.1532C49.0213 35.5097 48.4549 35.0025 47.7748 34.7073ZM37.8125 45.3506C30.5215 45.3427 23.5314 42.4428 18.3759 37.2873C13.2204 32.1318 10.3205 25.1416 10.3125 17.8506C10.3044 15.7527 11.0603 13.7235 12.4389 12.142C13.8175 10.5606 15.7247 9.53504 17.8041 9.25689C17.8033 9.26546 17.8033 9.2741 17.8041 9.28267L22.3158 19.3803L17.875 24.6956C17.8299 24.7474 17.789 24.8027 17.7526 24.861C17.4293 25.3571 17.2396 25.9283 17.2019 26.5193C17.1643 27.1103 17.28 27.7009 17.5377 28.234C19.4842 32.2151 23.4953 36.1961 27.5194 38.1405C28.0564 38.3958 28.6505 38.5075 29.2436 38.4646C29.8367 38.4216 30.4085 38.2256 30.9031 37.8956C30.9583 37.8584 31.0114 37.8182 31.0621 37.7752L36.285 33.3194L46.3826 37.8419H46.4063C46.1315 39.9243 45.1075 41.8352 43.5258 43.2173C41.944 44.5993 39.913 45.3577 37.8125 45.3506Z" fill="white"/>
</svg>
